<svg width="75" height="75" viewBox="0 0 75 75" fill="none" xmlns="http://www.w3.org/2000/svg">
<g id="icon-busqueda-sin-resultado">
<g id="ouch">
<path id="Fill 2" fill-rule="evenodd" clip-rule="evenodd" d="M70.4546 14.394V19.0343V23.6746V28.3142V32.9545V37.5948V42.235V46.8753V51.5153H75V14.394H70.4546Z" fill="#50E3C2"/>
<path id="Fill 3" fill-rule="evenodd" clip-rule="evenodd" d="M65.9092 56.0606H70.4546V51.5151H65.9092V56.0606Z" fill="#50E3C2"/>
<path id="Fill 4" fill-rule="evenodd" clip-rule="evenodd" d="M65.9092 13.6363H70.4546V9.09082H65.9092V13.6363Z" fill="#50E3C2"/>
<path id="Fill 5" fill-rule="evenodd" clip-rule="evenodd" d="M60.606 60.606H65.1514V56.0605H60.606V60.606Z" fill="#50E3C2"/>
<path id="Fill 6" fill-rule="evenodd" clip-rule="evenodd" d="M60.606 9.09086H65.1514V4.54541H60.606V9.09086Z" fill="#50E3C2"/>
<path id="Fill 7" fill-rule="evenodd" clip-rule="evenodd" d="M55.9091 60.606V65.4042H51.2123V60.606H46.5155H41.8184H37.1213H32.4242H27.7275H23.0303H18.3332H13.6365V65.4042H18.3332H23.0303H27.7275H32.4242H37.1213H41.8184H46.5155V70.2024H51.2123H55.9091V74.9999H60.6062V70.2024V65.4042V60.606H55.9091Z" fill="#50E3C2"/>
<path id="Fill 8" fill-rule="evenodd" clip-rule="evenodd" d="M13.6365 0V4.54545H18.3332H23.0306H27.7273H32.4241H37.1215H41.8182H46.5153H51.212H55.9088H60.6062V0H13.6365Z" fill="#50E3C2"/>
<path id="Fill 9" fill-rule="evenodd" clip-rule="evenodd" d="M9.09082 60.606H13.6363V56.0605H9.09082V60.606Z" fill="#50E3C2"/>
<path id="Fill 10" fill-rule="evenodd" clip-rule="evenodd" d="M9.09082 9.09086H13.6363V4.54541H9.09082V9.09086Z" fill="#50E3C2"/>
<path id="Fill 11" fill-rule="evenodd" clip-rule="evenodd" d="M4.54541 56.0606H9.09086V51.5151H4.54541V56.0606Z" fill="#50E3C2"/>
<path id="Fill 12" fill-rule="evenodd" clip-rule="evenodd" d="M4.54541 13.6363H9.09086V9.09082H4.54541V13.6363Z" fill="#50E3C2"/>
<path id="Fill 13" fill-rule="evenodd" clip-rule="evenodd" d="M0 14.394V19.0343V23.6746V28.3142V32.9545V37.5948V42.235V46.8753V51.5153H4.54545V46.8753V42.235V37.5948V32.9545V28.3142V23.6746V19.0343V14.394H0Z" fill="#50E3C2"/>
<path id="Fill 14" fill-rule="evenodd" clip-rule="evenodd" d="M22.245 32.2066C22.245 29.9281 20.8005 28.2146 18.5791 28.2146C16.3581 28.2146 14.9312 29.9281 14.9312 32.2066C14.9312 34.4667 16.3581 36.1987 18.5791 36.1987C20.8005 36.1987 22.245 34.4667 22.245 32.2066M12.2949 32.2066C12.2949 28.5428 14.9494 25.918 18.5791 25.918C22.2266 25.918 24.8815 28.5428 24.8815 32.2066C24.8815 35.8701 22.2266 38.495 18.5791 38.495C14.9494 38.495 12.2949 35.8701 12.2949 32.2066" fill="#50E3C2"/>
<path id="Fill 16" fill-rule="evenodd" clip-rule="evenodd" d="M26.3247 33.428V26.1184H28.9251V33.3368C28.9251 35.0319 29.9002 36.1987 31.7602 36.1987C33.6202 36.1987 34.5775 35.0319 34.5775 33.3368V26.1184H37.1954V33.4095C37.1954 36.4357 35.4261 38.4953 31.7602 38.4953C28.0947 38.4953 26.3247 36.4173 26.3247 33.428" fill="#50E3C2"/>
<path id="Fill 18" fill-rule="evenodd" clip-rule="evenodd" d="M38.6208 32.2066C38.6208 28.4701 41.4198 25.918 45.0315 25.918C47.686 25.918 49.2209 27.3761 50.0698 28.8891L47.8664 29.9828C47.3612 28.9984 46.2774 28.2146 45.0315 28.2146C42.8467 28.2146 41.2574 29.9097 41.2574 32.2066C41.2574 34.5036 42.8467 36.1987 45.0315 36.1987C46.2774 36.1987 47.3612 35.4333 47.8664 34.4305L50.0698 35.5061C49.2029 37.0188 47.686 38.495 45.0315 38.495C41.4198 38.495 38.6208 35.9432 38.6208 32.2066" fill="#50E3C2"/>
<path id="Fill 20" fill-rule="evenodd" clip-rule="evenodd" d="M59.4952 38.2767V33.1729H53.8069V38.2767H51.2424V26.1184H53.8069V30.8943H59.4952V26.1184H62.0773V38.2767H59.4952Z" fill="#50E3C2"/>
</g>
<path id="Fill 2 Copy" fill-rule="evenodd" clip-rule="evenodd" d="M35 5H39V1H35V5Z" fill="#50E3C2"/>
</g>
</svg>
