<svg width="32" height="32" viewBox="0 0 32 32" fill="none" xmlns="http://www.w3.org/2000/svg">
<g id="icon-fav-active">
<rect id="Rectangle Copy 15" width="32" height="32" rx="6" fill="white"/>
<path id="icon-fav-active_2" fill-rule="evenodd" clip-rule="evenodd" d="M19.8901 8C18.5348 8 17.2351 8.53854 16.277 9.49709L15.9998 9.7743L15.7224 9.49696C13.7271 7.50158 10.4919 7.50158 8.49653 9.49696C6.50116 11.4923 6.50116 14.7275 8.49653 16.7229L15.4441 23.6704C15.751 23.9773 16.2486 23.9773 16.5555 23.6704L23.503 16.7229C24.4615 15.7649 25 14.4652 25 13.1099C25 11.7546 24.4615 10.4549 23.5032 9.49709C22.5451 8.53854 21.2454 8 19.8901 8Z" fill="#572EE5"/>
<mask id="mask0" mask-type="alpha" maskUnits="userSpaceOnUse" x="7" y="8" width="18" height="16">
<path id="icon-fav-active_3" fill-rule="evenodd" clip-rule="evenodd" d="M19.8901 8C18.5348 8 17.2351 8.53854 16.277 9.49709L15.9998 9.7743L15.7224 9.49696C13.7271 7.50158 10.4919 7.50158 8.49653 9.49696C6.50116 11.4923 6.50116 14.7275 8.49653 16.7229L15.4441 23.6704C15.751 23.9773 16.2486 23.9773 16.5555 23.6704L23.503 16.7229C24.4615 15.7649 25 14.4652 25 13.1099C25 11.7546 24.4615 10.4549 23.5032 9.49709C22.5451 8.53854 21.2454 8 19.8901 8Z" fill="white"/>
</mask>
<g mask="url(#mask0)">
</g>
</g>
</svg>
