<svg width="68" height="60" viewBox="0 0 68 60" fill="none" xmlns="http://www.w3.org/2000/svg">
<path fill-rule="evenodd" clip-rule="evenodd" d="M0 -0.000200272V59.1084H59.1086V46.4423H54.8866V54.8864H4.22204V4.22184H42.2205V16.888H54.8866V25.3329H59.1086V12.6659L46.4425 -0.000200272H0Z" fill="#5ED7C6"/>
<mask id="mask0" style="mask-type:alpha" maskUnits="userSpaceOnUse" x="9" y="20" width="59" height="25">
<path fill-rule="evenodd" clip-rule="evenodd" d="M9.49414 20.5261H67.2711V44.1696H9.49414V20.5261Z" fill="white"/>
</mask>
<g mask="url(#mask0)">
<path d="M23.4434 39.418C22.9688 39.9453 22.2744 40.3701 21.3604 40.6924C20.4463 41.0146 19.4443 41.1758 18.3545 41.1758C16.6787 41.1758 15.3398 40.6631 14.3379 39.6377C13.3359 38.6123 12.7998 37.1855 12.7295 35.3574L12.7207 34.25C12.7207 32.9902 12.9434 31.8916 13.3887 30.9541C13.834 30.0107 14.4697 29.2871 15.2959 28.7832C16.1279 28.2734 17.0889 28.0186 18.1787 28.0186C19.7725 28.0186 21.0088 28.3848 21.8877 29.1172C22.7725 29.8438 23.2881 30.9307 23.4346 32.3779H20.4639C20.3584 31.6631 20.1299 31.1533 19.7783 30.8486C19.4268 30.5439 18.9287 30.3916 18.2842 30.3916C17.5107 30.3916 16.9131 30.7197 16.4912 31.376C16.0693 32.0322 15.8555 32.9697 15.8496 34.1885V34.9619C15.8496 36.2393 16.0664 37.2002 16.5 37.8447C16.9395 38.4834 17.6279 38.8027 18.5654 38.8027C19.3682 38.8027 19.9658 38.624 20.3584 38.2666V36.2803H18.2139V34.1621H23.4434V39.418ZM28.5234 41H25.4473V28.2031H28.5234V41ZM38.7275 35.9023H33.7529V41H30.668V28.2031H39.2285V30.585H33.7529V33.5293H38.7275V35.9023ZM51.3486 34.8652C51.3486 36.1133 51.1172 37.2178 50.6543 38.1787C50.1914 39.1396 49.5322 39.8809 48.6768 40.4023C47.8271 40.918 46.8574 41.1758 45.7676 41.1758C44.6777 41.1758 43.7109 40.9268 42.8672 40.4287C42.0234 39.9248 41.3643 39.207 40.8896 38.2754C40.4209 37.3438 40.1748 36.2744 40.1514 35.0674V34.3467C40.1514 33.0928 40.3799 31.9883 40.8369 31.0332C41.2998 30.0723 41.959 29.3311 42.8145 28.8096C43.6758 28.2881 44.6543 28.0273 45.75 28.0273C46.834 28.0273 47.8008 28.2852 48.6504 28.8008C49.5 29.3164 50.1592 30.0518 50.6279 31.0068C51.1025 31.9561 51.3428 33.0459 51.3486 34.2764V34.8652ZM48.2109 34.3291C48.2109 33.0576 47.9971 32.0938 47.5693 31.4375C47.1475 30.7754 46.541 30.4443 45.75 30.4443C44.2031 30.4443 43.3857 31.6045 43.2979 33.9248L43.2891 34.8652C43.2891 36.1191 43.4971 37.083 43.9131 37.7568C44.3291 38.4307 44.9473 38.7676 45.7676 38.7676C46.5469 38.7676 47.1475 38.4365 47.5693 37.7744C47.9912 37.1123 48.2051 36.1602 48.2109 34.918V34.3291ZM59.54 37.5986C59.54 37.1475 59.3789 36.7959 59.0566 36.5439C58.7402 36.292 58.1807 36.0312 57.3779 35.7617C56.5752 35.4922 55.9189 35.2314 55.4092 34.9795C53.751 34.165 52.9219 33.0459 52.9219 31.6221C52.9219 30.9131 53.127 30.2891 53.5371 29.75C53.9531 29.2051 54.5391 28.7832 55.2949 28.4844C56.0508 28.1797 56.9004 28.0273 57.8438 28.0273C58.7637 28.0273 59.5869 28.1914 60.3135 28.5195C61.0459 28.8477 61.6143 29.3164 62.0186 29.9258C62.4229 30.5293 62.625 31.2207 62.625 32H59.5488C59.5488 31.4785 59.3877 31.0742 59.0654 30.7871C58.749 30.5 58.3184 30.3564 57.7734 30.3564C57.2227 30.3564 56.7861 30.4795 56.4639 30.7256C56.1475 30.9658 55.9893 31.2734 55.9893 31.6484C55.9893 31.9766 56.165 32.2754 56.5166 32.5449C56.8682 32.8086 57.4863 33.084 58.3711 33.3711C59.2559 33.6523 59.9824 33.957 60.5508 34.2852C61.9336 35.082 62.625 36.1807 62.625 37.5811C62.625 38.7002 62.2031 39.5791 61.3594 40.2178C60.5156 40.8564 59.3584 41.1758 57.8877 41.1758C56.8506 41.1758 55.9102 40.9912 55.0664 40.6221C54.2285 40.2471 53.5957 39.7373 53.168 39.0928C52.7461 38.4424 52.5352 37.6953 52.5352 36.8516H55.6289C55.6289 37.5371 55.8047 38.0439 56.1562 38.3721C56.5137 38.6943 57.0908 38.8555 57.8877 38.8555C58.3975 38.8555 58.7988 38.7471 59.0918 38.5303C59.3906 38.3076 59.54 37.9971 59.54 37.5986Z" fill="white"/>
</g>
</svg>
