<svg width="56" height="49" viewBox="0 0 56 49" fill="none" xmlns="http://www.w3.org/2000/svg">
<path fill-rule="evenodd" clip-rule="evenodd" d="M0 -0.000244141V48.7913H48.7915V38.3359H45.3064V45.3062H3.48511V3.48486H34.8511V13.9402H45.3064V20.9111H48.7915V10.4551L38.3362 -0.000244141H0Z" fill="#5ED7C6"/>
<mask id="mask0" mask-type="alpha" maskUnits="userSpaceOnUse" x="7" y="16" width="49" height="21">
<path fill-rule="evenodd" clip-rule="evenodd" d="M7.8374 16.9434H55.5296V36.46H7.8374V16.9434Z" fill="white"/>
</mask>
<g mask="url(#mask0)">
<path d="M18.1719 34.5938C17.75 35.0625 17.1328 35.4401 16.3203 35.7266C15.5078 36.013 14.6172 36.1562 13.6484 36.1562C12.1589 36.1562 10.9688 35.7005 10.0781 34.7891C9.1875 33.8776 8.71094 32.6094 8.64844 30.9844L8.64062 30C8.64062 28.8802 8.83854 27.9036 9.23438 27.0703C9.63021 26.2318 10.1953 25.5885 10.9297 25.1406C11.6693 24.6875 12.5234 24.4609 13.4922 24.4609C14.9089 24.4609 16.0078 24.7865 16.7891 25.4375C17.5755 26.0833 18.0339 27.0495 18.1641 28.3359H15.5234C15.4297 27.7005 15.2266 27.2474 14.9141 26.9766C14.6016 26.7057 14.1589 26.5703 13.5859 26.5703C12.8984 26.5703 12.3672 26.862 11.9922 27.4453C11.6172 28.0286 11.4271 28.862 11.4219 29.9453V30.6328C11.4219 31.7682 11.6146 32.6224 12 33.1953C12.3906 33.763 13.0026 34.0469 13.8359 34.0469C14.5495 34.0469 15.0807 33.888 15.4297 33.5703V31.8047H13.5234V29.9219H18.1719V34.5938ZM22.6875 36H19.9531V24.625H22.6875V36ZM31.7578 31.4688H27.3359V36H24.5938V24.625H32.2031V26.7422H27.3359V29.3594H31.7578V31.4688ZM42.9766 30.5469C42.9766 31.6562 42.7708 32.638 42.3594 33.4922C41.9479 34.3464 41.362 35.0052 40.6016 35.4688C39.8464 35.9271 38.9844 36.1562 38.0156 36.1562C37.0469 36.1562 36.1875 35.9349 35.4375 35.4922C34.6875 35.0443 34.1016 34.4062 33.6797 33.5781C33.263 32.75 33.0443 31.7995 33.0234 30.7266V30.0859C33.0234 28.9714 33.2266 27.9896 33.6328 27.1406C34.0443 26.2865 34.6302 25.6276 35.3906 25.1641C36.1562 24.7005 37.026 24.4688 38 24.4688C38.9635 24.4688 39.8229 24.6979 40.5781 25.1562C41.3333 25.6146 41.9193 26.2682 42.3359 27.1172C42.7578 27.9609 42.9714 28.9297 42.9766 30.0234V30.5469ZM40.1875 30.0703C40.1875 28.9401 39.9974 28.0833 39.6172 27.5C39.2422 26.9115 38.7031 26.6172 38 26.6172C36.625 26.6172 35.8984 27.6484 35.8203 29.7109L35.8125 30.5469C35.8125 31.6615 35.9974 32.5182 36.3672 33.1172C36.737 33.7161 37.2865 34.0156 38.0156 34.0156C38.7083 34.0156 39.2422 33.7214 39.6172 33.1328C39.9922 32.5443 40.1823 31.6979 40.1875 30.5938V30.0703ZM50.2578 32.9766C50.2578 32.5755 50.1146 32.263 49.8281 32.0391C49.5469 31.8151 49.0495 31.5833 48.3359 31.3438C47.6224 31.1042 47.0391 30.8724 46.5859 30.6484C45.112 29.9245 44.375 28.9297 44.375 27.6641C44.375 27.0339 44.5573 26.4792 44.9219 26C45.2917 25.5156 45.8125 25.1406 46.4844 24.875C47.1562 24.6042 47.9115 24.4688 48.75 24.4688C49.5677 24.4688 50.2995 24.6146 50.9453 24.9062C51.5964 25.1979 52.1016 25.6146 52.4609 26.1562C52.8203 26.6927 53 27.3073 53 28H50.2656C50.2656 27.5365 50.1224 27.1771 49.8359 26.9219C49.5547 26.6667 49.1719 26.5391 48.6875 26.5391C48.1979 26.5391 47.8099 26.6484 47.5234 26.8672C47.2422 27.0807 47.1016 27.3542 47.1016 27.6875C47.1016 27.9792 47.2578 28.2448 47.5703 28.4844C47.8828 28.7188 48.4323 28.9635 49.2188 29.2188C50.0052 29.4688 50.651 29.7396 51.1562 30.0312C52.3854 30.7396 53 31.7161 53 32.9609C53 33.9557 52.625 34.737 51.875 35.3047C51.125 35.8724 50.0964 36.1562 48.7891 36.1562C47.8672 36.1562 47.0312 35.9922 46.2812 35.6641C45.5365 35.3307 44.974 34.8776 44.5938 34.3047C44.2188 33.7266 44.0312 33.0625 44.0312 32.3125H46.7812C46.7812 32.9219 46.9375 33.3724 47.25 33.6641C47.5677 33.9505 48.0807 34.0938 48.7891 34.0938C49.2422 34.0938 49.599 33.9974 49.8594 33.8047C50.125 33.6068 50.2578 33.3307 50.2578 32.9766Z" fill="#572EE5"/>
</g>
</svg>
